<?xml version="1.0" encoding="UTF-8" standalone="no"?>
<svg width="270px" height="128px" viewBox="0 0 270 128" version="1.1" xmlns="http://www.w3.org/2000/svg" xmlns:xlink="http://www.w3.org/1999/xlink" xmlns:sketch="http://www.bohemiancoding.com/sketch/ns">
    <!-- Generator: Sketch 3.5.2 (25235) - http://www.bohemiancoding.com/sketch -->
    <title>Logo</title>
    <desc>Created with Sketch.</desc>
    <defs></defs>
    <g id="Homepage" stroke="none" stroke-width="1" fill="none" fill-rule="evenodd" sketch:type="MSPage">
        <g id="Accueil" sketch:type="MSArtboardGroup" transform="translate(-215.000000, -30.000000)">
            <g id="Header" sketch:type="MSLayerGroup">
                <g id="Logo" transform="translate(215.000000, 30.000000)" sketch:type="MSShapeGroup">
                    <path d="M138.874682,73.2382361 L132.259255,73.2382361 L132.259255,60.9993255 L118.097818,61.0253559 L118.097818,73.2382361 L112.897327,73.2382361 L112.897327,84.9602585 L118.097818,84.9602585 L118.097818,112.285614 C118.097818,115.372998 120.607887,117.883067 123.694342,117.883067 L132.259255,117.883067 L132.259255,84.9602585 L138.874682,84.9602585 L138.874682,73.2382361 Z M58.3172703,107.394698 C51.7855129,107.394698 46.4697445,102.079859 46.4697445,95.5471718 C46.4697445,89.0154144 51.7855129,83.699646 58.3172703,83.699646 C64.850887,83.699646 70.1657257,89.0154144 70.1657257,95.5471718 C70.1657257,102.079859 64.850887,107.394698 58.3172703,107.394698 Z M58.3172703,72.440592 C45.5754162,72.440592 35.2116201,82.8062474 35.2116201,95.5471718 C35.2116201,108.289026 45.5754162,118.654681 58.3172703,118.654681 C71.0591244,118.654681 81.4247798,108.289026 81.4247798,95.5471718 C81.4247798,82.8062474 71.0591244,72.440592 58.3172703,72.440592 Z M147.83191,117.882138 L156.394964,117.882138 L156.394964,73.2373065 L142.234456,73.2373065 L142.234456,112.285614 C142.234456,115.372998 144.745454,117.882138 147.83191,117.882138 Z M237.575244,112.812728 L243.104833,112.812728 L243.104833,118.237266 L237.575244,118.237266 L237.575244,112.812728 Z M243.49157,104.536938 L243.49157,100.02811 L246.485989,100.02811 L246.485989,98.6196822 C246.485989,96.9983636 246.990792,95.6726753 248.001327,94.6388987 C249.010003,93.6051221 250.535567,93.0900931 252.578949,93.0900931 C253.024254,93.0900931 253.470488,93.1058973 253.917653,93.1412242 C254.362957,93.1774807 254.797106,93.2081594 255.2201,93.2304711 L255.2201,96.9639663 C254.632557,96.8933125 254.022704,96.8579856 253.389608,96.8579856 C252.707242,96.8579856 252.221032,97.016027 251.927261,97.3339691 C251.63349,97.6500519 251.487534,98.1846036 251.487534,98.9348353 L251.487534,100.02811 L256.101413,100.02811 L256.101413,104.536938 L251.487534,104.536938 L251.487534,118.237266 L250.451898,118.237266 C248.260701,118.237266 246.485989,116.460695 246.485989,114.271357 L246.485989,104.536938 L243.49157,104.536938 Z M262.237137,100.02718 L262.237137,103.408336 L262.307791,103.408336 C262.542064,102.844965 262.859076,102.322499 263.258828,101.841867 C263.65672,101.360306 264.11597,100.949398 264.631929,100.608215 C265.148817,100.268891 265.700103,100.004868 266.287645,99.8161485 C266.873327,99.6292878 267.485041,99.5344629 268.118136,99.5344629 C268.448163,99.5344629 268.810729,99.5939609 269.210481,99.7101678 L269.210481,104.359373 C268.976207,104.312891 268.693592,104.271056 268.366354,104.236659 C268.036326,104.200402 267.720243,104.183669 267.414387,104.183669 C266.499606,104.183669 265.724274,104.337062 265.089319,104.641059 C264.456224,104.945986 263.945843,105.364331 263.558177,105.891445 C263.170511,106.420419 262.894403,107.03678 262.728925,107.742389 C262.565305,108.445208 262.484425,109.208455 262.484425,110.03027 L262.484425,118.237266 L261.44786,118.237266 C259.258522,118.237266 257.48288,116.460695 257.48288,114.270427 L257.48288,100.02718 L262.237137,100.02718 Z M0.654477256,113.879043 C0.710256568,113.919018 0.762317259,113.959923 0.827393122,113.996179 C2.70157799,115.091313 9.38393952,118.654681 16.8304776,118.654681 C27.6581717,118.654681 34.9327235,112.886171 34.9327235,104.299875 C34.9327235,94.6612104 26.6150985,92.1492821 20.5425908,90.3141427 C16.8602266,89.2032048 13.9513355,88.3256103 13.9513355,86.185544 C13.9513355,84.3940985 15.4174017,83.483966 18.3086294,83.483966 C20.9107343,83.483966 23.2767067,84.214675 25.2485054,84.9305095 L27.9454351,86.0377288 L34.0421139,76.7774335 L32.2962214,75.7148376 C32.1316725,75.657199 31.6519704,75.4285038 31.0951069,75.1626224 C30.4787455,74.869781 29.7796448,74.5360348 29.5137634,74.44121 C28.7003151,74.1214086 27.8357358,73.8304265 26.9367592,73.5719824 L26.6801744,73.4966803 C24.1254819,72.7864237 21.5875232,72.4415216 18.9194128,72.4415216 C7.81654087,72.4415216 0.643321394,77.8725673 0.643321394,86.2785095 C0.643321394,96.0175773 8.95257951,98.609456 15.020439,100.500375 C18.7120997,101.652217 21.6284281,102.56142 21.6284281,104.732165 C21.6284281,105.806847 21.0501825,107.611307 17.1790983,107.611307 C14.1484224,107.611307 11.6997106,106.645396 9.64238367,105.739911 C8.93956434,105.377346 8.21164432,105.198852 7.45862362,105.198852 C5.50169943,105.198852 3.70002767,106.425997 2.86705662,108.329001 L0.388595871,113.699619 L0.510380701,113.775851 C0.561511737,113.809318 0.607994497,113.844645 0.654477256,113.879043 Z M109.536623,73.3488651 C102.765015,74.2785203 97.8917622,78.0547797 97.8369126,78.0984735 L97.264245,78.5493563 L97.264245,73.2373065 L83.1046667,73.2131355 L83.1046667,112.286543 C83.1046667,115.372069 85.6147357,117.882138 88.7002613,117.882138 L97.264245,117.882138 L97.264245,100.180573 C97.264245,92.7981814 102.553053,86.6401454 109.536623,85.2614668 L109.536623,73.3488651 Z M186.187624,73.3488651 C179.416015,74.2785203 174.542763,78.0547797 174.487913,78.0984735 L173.915245,78.5493563 L173.915245,73.2373065 L159.755667,73.2131355 L159.755667,112.286543 C159.755667,115.372069 162.265736,117.882138 165.351262,117.882138 L173.915245,117.882138 L173.915245,100.180573 C173.915245,92.7981814 179.204054,86.6401454 186.187624,85.2614668 L186.187624,73.3488651 Z M142.235385,60.9983959 L156.394964,60.9983959 L156.394964,69.1616981 L142.235385,69.1616981 L142.235385,60.9983959 Z" id="Sortir.fr" fill="#FF6E46"></path>
                    <path d="M200.074813,106.153608 L190.530043,106.153608 L200.074813,93.7176104 L200.074813,106.153608 L200.074813,106.153608 Z M214.841456,106.153608 L212.1343,106.153608 L212.1343,73.0030334 L199.909334,73.0030334 L177.924848,105.786394 L177.94623,105.908179 L177.94623,117.859826 L200.074813,117.859826 L200.074813,121.994003 C200.074813,125.078599 202.584882,127.588668 205.671337,127.588668 L212.1343,127.588668 L212.1343,117.859826 L214.841456,117.859826 L214.841456,106.153608 Z M248.932841,73.003963 L214.384066,73.003963 L214.384066,79.1210942 C214.384066,82.2112681 216.897853,84.7241261 219.988027,84.7241261 L234.339114,84.7241261 L216.751897,117.841233 L229.668527,117.841233 L248.932841,84.9816405 L248.932841,73.003963 Z" id="47" fill="#FFFFFF"></path>
                    <g id="Bulle" transform="translate(169.197245, 0.000000)">
                        <path d="M45.4099376,0.832041398 C24.3011868,2.42082212 7.55065948,18.1319949 7.2410843,37.0523374 C7.16206361,41.8447099 8.23953398,46.26615 10.2336444,50.1892949 L0.488068977,64.9633753 C0.140377934,65.5128015 0.805081398,66.9639932 1.79423452,66.5753974 L18.3941577,60.0585145 C26.0312751,66.1486856 36.8636174,69.3532071 48.5782025,68.3789284 C69.1802912,66.6665036 85.5301371,53.7861309 85.6937564,34.6845056 C85.864813,14.8112665 68.3036264,-0.890609675 45.4099376,0.832041398" id="Fill-48" fill="#FFFFFF"></path>
                        <path d="M29.1818765,40.4632423 C28.684511,40.4418602 27.708373,39.6237637 26.8419344,39.5856478 C26.3640916,39.5651954 25.9308723,39.7669306 25.9076309,40.2828892 C25.8527813,41.515612 30.4610821,41.5351347 30.3272117,44.5527955 C30.2491207,46.3191404 28.6993855,47.5955569 26.417082,47.4932949 C24.9268447,47.428219 22.7570295,46.4836893 22.8100198,45.2890824 C22.8286129,44.8837527 23.2664805,44.1288727 24.0018378,44.1614107 C25.033755,44.2078934 25.4530295,45.1282521 26.7043454,45.1840314 C27.5140751,45.2212176 27.7641524,44.9729996 27.7855344,44.4765638 C27.8403841,43.2615044 23.2330129,43.2419817 23.3678129,40.2066575 C23.4486929,38.3668698 24.9937799,37.1815595 27.0920116,37.274525 C28.3991068,37.3321636 30.3774131,38.029405 30.3188448,39.3337112 C30.2918848,39.9417057 29.8075345,40.4920616 29.1818765,40.4632423 Z M33.6200504,42.7074299 C33.5642711,43.9773389 34.1638987,45.4043596 35.5992863,45.4685059 C37.0337443,45.5317224 37.7588753,44.1641996 37.8146546,42.8942906 C37.8722933,41.6243816 37.2912588,40.1601747 35.8372781,40.0960285 C34.3832973,40.0309526 33.677689,41.4375209 33.6200504,42.7074299 Z M47.2206731,38.6577474 C46.9873819,38.3922075 46.6574289,38.2526557 46.3219293,38.2376478 C45.4945362,38.2013912 44.9460396,38.5453636 44.4161362,39.2602685 L44.37895,39.2584092 C44.4161362,38.4114933 43.8388203,38.1279484 43.1397196,38.0972698 C42.4768754,38.0675209 41.7573223,38.4784285 41.7192065,39.3616009 L41.3994051,46.5738659 C41.3594299,47.4570383 41.8874741,48.0696811 42.6600175,48.1040783 C43.432561,48.1394052 44.0108065,47.5741749 44.049852,46.6910024 L44.2302051,42.6256203 C44.2766879,41.5760396 45.1012921,41.2627458 45.9082328,40.9299292 C46.3621002,40.7431654 46.8106981,40.6547657 47.1239165,40.4603655 C47.312137,40.6284598 47.5722913,40.7271873 47.8902576,40.7412092 L48.479659,40.7672395 L48.2091294,46.8750742 C48.1700838,47.7591763 48.6962687,48.371819 49.4697418,48.4062163 C50.2413556,48.4406135 50.8196012,47.8772425 50.8586467,46.9931404 L51.1291763,40.8853058 L51.884986,40.9187733 C52.5645639,40.9485223 53.1679102,40.6426657 53.2050964,39.8152726 C53.2422826,38.9692864 52.6686853,38.6290326 51.9881777,38.5992836 L51.2323681,38.565816 L51.3030219,36.9835429 C51.3420674,36.1013001 50.8158825,35.4877277 50.0433391,35.4533305 C49.2698659,35.4189332 48.6916204,35.9832339 48.6525749,36.8654767 L48.5828508,38.4477498 L47.9934494,38.4217195 C47.6970754,38.4087974 47.4289239,38.4968036 47.2206731,38.6577474 Z M40.464172,43.0104975 C40.3433168,45.7715735 38.3436285,48.0231983 35.4914463,47.8967652 C32.6401938,47.7703321 30.8478186,45.34951 30.9705331,42.5893637 C31.089529,39.9035899 33.1477856,37.5431953 35.9451181,37.6668395 C38.7424505,37.7904836 40.5840975,40.3247237 40.464172,43.0104975 Z M56.2831847,36.1542905 C56.2478578,36.9816836 55.5543351,37.651965 54.7250826,37.6147788 C53.9348757,37.5794519 53.2664536,36.8320091 53.3008509,36.0213498 C53.3343184,35.2673994 54.0659571,34.5989773 54.8580233,34.6343042 C55.6473006,34.6687015 56.317582,35.381747 56.2831847,36.1542905 Z M53.289695,40.0207264 C53.3287405,39.1384836 53.9079157,38.5751126 54.6804592,38.6085802 C55.4539323,38.6420478 55.9810468,39.2565499 55.9410716,40.1397223 L55.6287075,47.2041721 C55.5878026,48.0892038 55.0114164,48.6516452 54.2379433,48.617248 C53.4653998,48.5837804 52.9373557,47.9711376 52.9773309,47.0861059 L53.289695,40.0207264 Z M57.3829668,40.0551237 C57.4210827,39.1728809 58.1415655,38.7619733 58.80348,38.7926519 C59.5025807,38.8233305 60.0798965,39.1059457 60.0427103,39.9537912 L60.0798965,39.9547209 C60.6088703,39.2398161 61.1573669,38.8958436 61.9856897,38.9321002 C62.6290111,38.9618492 63.254669,39.4499181 63.2128345,40.407463 C63.1728594,41.2720423 62.3807931,41.2915651 61.5710635,41.623452 C60.7641228,41.9581278 59.9404483,42.2714216 59.8939655,43.3210024 L59.7126827,47.3863845 C59.6736372,48.269557 59.0953917,48.8338577 58.3228482,48.7994604 C57.5493751,48.7650632 57.0231903,48.1505611 57.0631654,47.2683183 L57.3829668,40.0551237 Z M69.9955988,47.9888011 C70.0309257,47.1985942 70.7049257,46.5831624 71.4951327,46.6184893 C72.2871989,46.6538162 72.9007713,47.3259569 72.8654444,48.1161638 C72.8319768,48.9073004 72.1598361,49.5227322 71.3677699,49.4874053 C70.577563,49.4520784 69.9612016,48.7799377 69.9955988,47.9888011 Z M70.3572347,42.3634575 C70.386054,41.701543 71.1269892,41.6243816 71.8902361,41.4551844 C72.6348899,41.2841278 73.3832624,41.0228947 73.4316044,39.9575099 C73.467861,39.1459209 72.7390113,38.5249112 71.9664678,38.490514 C70.4204512,38.4207898 70.0997202,40.2326878 68.9227767,40.1806271 C68.2608622,40.1508782 67.8239243,39.6163264 67.8601808,38.8056671 C67.9457091,36.8738436 70.4223106,35.8772532 72.0798858,35.950696 C74.4523658,36.055747 76.4111493,37.6184974 76.30145,40.0848726 C76.2112734,42.1263954 74.8707107,43.2642934 72.9537617,43.6593969 L72.9249423,44.322241 C72.8914748,45.0585279 72.3160182,45.5661197 71.5434747,45.5317224 C70.7151519,45.4945362 70.2419575,44.9404617 70.275425,44.2041748 L70.3572347,42.3634575 Z M23.5760557,29.0359207 C23.3947729,28.1285772 22.766326,27.4861854 21.7939067,27.5549799 C20.8623922,27.6191261 20.2878653,28.3749358 20.2488198,29.2683345 L23.5760557,29.0359207 Z M20.3901274,30.6600283 C20.606737,31.6817193 21.4973467,32.1019235 22.4706957,32.033129 C23.5463067,31.9587566 24.2286737,31.0644283 24.7808888,31.0244531 C25.2299123,30.9937745 25.6696392,31.4149083 25.7003178,31.8657911 C25.7635344,32.7666269 23.9655812,33.7697249 22.4084088,33.8784946 C20.0563811,34.0430435 18.3681273,32.4365994 18.2063673,30.1254765 C18.0585521,28.0040034 19.4632611,25.9661992 21.6721219,25.8100171 C23.9386212,25.6529054 25.5794626,27.6116889 25.7012475,29.3547924 C25.7449413,29.9795207 25.4902157,30.3039703 24.8487537,30.3485938 L20.3901274,30.6600283 Z M26.2627592,26.7461799 C26.2144171,26.0480089 26.6169578,25.5506433 27.2277413,25.5088089 C27.765082,25.4716226 28.1341551,25.7393633 28.2401358,26.2134875 C28.60642,25.6185082 29.2125551,25.2838323 30.2007786,25.2150378 C31.8425497,25.0997606 33.1357001,26.061024 33.2593442,27.8329468 L33.5391704,31.8434793 C33.5884421,32.5407207 33.1849718,33.0380863 32.575118,33.0789911 C31.9652642,33.1217552 31.4957883,32.6876063 31.4465166,31.9903649 L31.1917911,28.3423979 C31.1248559,27.3681192 30.4815345,26.9460558 29.7257248,26.9990461 C28.8685827,27.0594737 28.4335041,27.7176696 28.4902131,28.5320475 L28.7449386,32.1790849 C28.7932807,32.8763263 28.39074,33.3709028 27.7799565,33.413667 C27.169173,33.4564311 26.7006268,33.0222821 26.6522847,32.3250407 L26.2627592,26.7461799 Z M33.8942987,26.6792447 C33.7743732,26.4245192 33.734398,26.2683371 33.7213828,26.0786875 C33.6758297,25.4102654 34.1741249,25.0244585 34.7402849,24.9835537 C35.3213194,24.9435785 35.597427,25.3479785 35.7238601,25.662202 L37.3479677,29.6941165 L37.3767871,29.6922572 L38.4235788,25.4725523 C38.5035291,25.1453137 38.7219981,24.7065164 39.302103,24.6656116 C39.8710519,24.6256364 40.4176892,24.9389302 40.4632423,25.6073523 C40.4771871,25.797002 40.4595237,25.9569027 40.3749251,26.2265027 L38.6457664,31.7793331 C38.4793581,32.3315483 38.2859898,32.6810987 37.573874,32.7303704 C36.8608284,32.7805718 36.6200477,32.4607704 36.3801967,31.9383042 L33.8942987,26.6792447 Z M41.024754,25.7142627 C40.9754823,25.0160916 41.3798823,24.5196557 41.9897361,24.4787509 C42.6005196,24.4350571 43.0672065,24.8692061 43.1164782,25.5673771 L43.5069334,31.1471676 C43.5552755,31.844409 43.1527348,32.3399152 42.542881,32.3826794 C41.9311678,32.4254435 41.4626216,31.9912945 41.4133499,31.2940531 L41.024754,25.7142627 Z M43.0272313,22.4056198 C43.0737141,23.0600971 42.5893637,23.6476392 41.9348865,23.6931923 C41.3101582,23.7378157 40.7198271,23.2107012 40.6733444,22.5701688 C40.6324395,21.9751895 41.1456092,21.3839288 41.7712672,21.340235 C42.3959954,21.2965412 42.9844672,21.795766 43.0272313,22.4056198 Z M49.3953694,27.2314599 C49.2140866,26.3241165 48.5865694,25.6817247 47.6132204,25.7505192 C46.6826355,25.8155951 46.1081086,26.5714047 46.0681335,27.4648034 L49.3953694,27.2314599 Z M46.209441,28.8564972 C46.4260507,29.8781883 47.3166604,30.2974628 48.2900094,30.2305276 C49.3674797,30.1542959 50.0479873,29.2599676 50.6011322,29.220922 C51.049226,29.1893138 51.4898825,29.6113772 51.5205612,30.06226 C51.5837777,30.9630959 49.7848949,31.9652642 48.2305114,32.0740338 C45.8756948,32.2385828 44.187441,30.6330683 44.025681,28.3219455 C43.8778658,26.2004723 45.2825748,24.1617385 47.4914356,24.0074157 C49.7588646,23.8484447 51.3987763,25.8072282 51.5205612,27.5503317 C51.564255,28.1750599 51.3095294,28.5004393 50.668997,28.5450627 L46.209441,28.8564972 Z M59.4384344,25.0988309 C58.3488786,25.1750626 57.8914882,26.360373 57.959353,27.3485965 C58.0281475,28.3228751 58.6454386,29.4189386 59.7340648,29.3427069 C60.8812593,29.2627565 61.2958855,28.0653606 61.2233724,27.0483179 C61.1527186,26.0322047 60.5568096,25.0207399 59.4384344,25.0988309 Z M63.5140428,29.7508255 C63.5633145,30.4471372 63.1598442,30.9426435 62.55092,30.9854076 C61.9689559,31.0253828 61.6128979,30.7306821 61.442771,30.1877634 C61.0960097,30.8524669 60.3048731,31.2308366 59.5936869,31.2801083 C57.4861585,31.4279235 56.0107958,29.5583869 55.8741364,27.5828696 C55.7309695,25.548784 56.7033889,23.3640943 58.9559434,23.2060529 C59.6820041,23.1558516 60.4108538,23.3520088 60.9965366,23.793595 L60.7975903,20.9460612 C60.7492483,20.2478901 61.151789,19.7523839 61.7635021,19.7096198 C62.3714966,19.6668556 62.8409725,20.1010046 62.8902442,20.7991756 L63.5140428,29.7508255 Z M69.4322278,25.8323289 C69.250945,24.9249854 68.6224981,24.2825937 67.6500788,24.3513881 C66.7194939,24.4155343 66.142178,25.1722737 66.1040622,26.0647427 L69.4322278,25.8323289 Z M66.2462994,27.4573661 C66.4629091,28.4790572 67.3535188,28.8983317 68.3268678,28.8295372 C69.4024788,28.7551648 70.0848457,27.8608365 70.6352016,27.821791 C71.0860844,27.7901827 71.5258113,28.2122462 71.5564899,28.6631289 C71.6197064,29.5639648 69.8208236,30.5661331 68.2673698,30.6749028 C65.9125532,30.8394517 64.2242994,29.2339372 64.0625394,26.9228144 C63.9147242,24.8013413 65.3194332,22.7626074 67.5282939,22.6082846 C69.7947933,22.4493136 71.4356347,24.4080971 71.5574196,26.1512006 C71.6011133,26.7759289 71.3463878,27.1013082 70.7058554,27.1459316 L66.2462994,27.4573661 L66.2462994,27.4573661 Z" id="Fill-49" fill="#323263"></path>
                    </g>
                </g>
            </g>
        </g>
    </g>
</svg>